<?xml version="1.0" encoding="utf-8"?>
<!-- Generator: Adobe Illustrator 15.0.0, SVG Export Plug-In  -->
<!DOCTYPE svg PUBLIC "-//W3C//DTD SVG 1.1//EN" "http://www.w3.org/Graphics/SVG/1.1/DTD/svg11.dtd" [
	<!ENTITY ns_flows "http://ns.adobe.com/Flows/1.0/">
]>
<svg version="1.1"
	 xmlns="http://www.w3.org/2000/svg" xmlns:xlink="http://www.w3.org/1999/xlink" xmlns:a="http://ns.adobe.com/AdobeSVGViewerExtensions/3.0/"
	 x="0px" y="0px" width="104px" height="38px" viewBox="-4.434 -5.294 104 38" enable-background="new -4.434 -5.294 104 38"
	 xml:space="preserve">
<defs>
</defs>
<text transform="matrix(1 0 0 1 20.6143 22.7144)" font-family="'ArialMT'" font-size="24">SeeMe</text>
<g>
	<g>
		<path d="M18.011,0.587C12.608,0.123,4.792-1.421,0.986,3.643c-4.051,5.391,5.498,9.021,8.322,11.478
			c0.12-0.543,0.241-1.086,0.362-1.628c-2.662,2.1-9.877,4.48-9.48,8.879c0.489,5.431,9.112,4.118,12.727,4.931
			c1.864,0.42,6.845-2.431,3.541-3.175C13.719,23.51,7.26,24.542,6.05,21.524c-0.998-2.487,6.685-5.799,8.275-7.054
			c0.424-0.334,0.903-1.158,0.362-1.628c-2.431-2.115-5.524-3.218-7.768-5.589C4.418,4.608,7.226,3.33,9.671,3.381
			c2.036,0.042,4.066,0.351,6.094,0.525C18.002,4.099,21.925,0.922,18.011,0.587L18.011,0.587z"/>
	</g>
</g>
</svg>
