<?xml version="1.0" encoding="utf-8"?>
<!-- Generator: Adobe Illustrator 15.0.0, SVG Export Plug-In  -->
<!DOCTYPE svg PUBLIC "-//W3C//DTD SVG 1.1//EN" "http://www.w3.org/Graphics/SVG/1.1/DTD/svg11.dtd" [
	<!ENTITY ns_flows "http://ns.adobe.com/Flows/1.0/">
]>
<svg version="1.1"
	 xmlns="http://www.w3.org/2000/svg" xmlns:xlink="http://www.w3.org/1999/xlink" xmlns:a="http://ns.adobe.com/AdobeSVGViewerExtensions/3.0/"
	 x="0px" y="0px" width="104px" height="38px" viewBox="-3.388 -5.299 104 38" enable-background="new -3.388 -5.299 104 38"
	 xml:space="preserve">
<defs>
</defs>
<text transform="matrix(1 0 0 1 24.6143 25.2139)" fill="#FFFFFF" font-family="'TSTPenC'" font-size="30">SeeMe</text>
<g>
	<g>
		<path fill="#FFFFFF" d="M18.011,0.586C12.608,0.123,4.792-1.421,0.986,3.642c-4.051,5.391,5.498,9.021,8.322,11.479
			c0.12-0.543,0.241-1.086,0.362-1.629c-2.662,2.1-9.877,4.48-9.48,8.88c0.489,5.43,9.112,4.117,12.727,4.93
			c1.864,0.42,6.845-2.43,3.541-3.174c-2.739-0.617-9.198,0.414-10.408-2.603c-0.998-2.488,6.685-5.799,8.275-7.055
			c0.424-0.334,0.903-1.158,0.362-1.629c-2.431-2.115-5.524-3.217-7.768-5.59C4.418,4.607,7.226,3.33,9.671,3.38
			c2.036,0.043,4.066,0.352,6.094,0.525C18.002,4.098,21.925,0.921,18.011,0.586L18.011,0.586z"/>
	</g>
</g>
</svg>
