<svg fill="#FFFFFF" xmlns="http://www.w3.org/2000/svg" width="103.539px" height="38.045px" viewBox="76.5 72.205 103.539 38.045">
	<path d="M1,0c56.333,0,112.667,0,169,0c0,23,0,46,0,69    c-56.667,0-113.333,0-170,0C0,47,0,25,0,3C-0.086,1.581-0.165,0.168,1,0z M42,30c-4.947,6.053-11.727,10.273-19,14    c-4.165-0.502-5.835-3.498-10-4c-0.617,4.283,3.256,4.077,3,8c-3.88,1.453-7.989,2.678-11,5c4.255,2.171,9.001-2.695,13-4    c11.649,10.619,35.565,2.876,27-18c4.139-4.861,8.858-9.142,8-19C42.486,4.51,36.746,20.941,42,30z M91,17    c5.046-1.621,7.754-5.579,15-5c0.111,1.889,3.306,0.694,3,3c-2.4,16.934-12.589,26.078-19,39c14.215-8.452,12.582-32.751,33-35    c-1.533,15.8-11.869,22.798-17,35c12.522-6.813,12.013-31.984,30-30c-2.12,10.945-13.217,18.028-13,28    c4.754,2.959,9.02-1.979,13-3c1.422,1.912,3.088,3.578,5,5c6.832-1.513,16.521-5.462,16-11c-2.144,4.604-16.857,13.834-19,3    c8.177-1.823,17.081-2.919,17-13c-15.7-8.149-16.025,20.239-30,17c2.49-10.686,14.162-16.931,12-29c-6.406-2.039-10.104,3.85-12,3    c0.649-3.649-0.674-5.326-2-7c-7.124-1.766-9.616,6.351-13,5c1.675-1.659,0.796-5.871,1-9C105.156,7.737,93.967,10.983,91,17z     M48,51c5.823,5.922,14.23-0.291,19-4c0.12,3.88,2.947,5.053,5,7c6.832-1.513,16.521-5.462,16-11c-3.826,4.508-8,8.666-17,8    c-0.888-1.778-2.792-2.542-2-6c9.908,0.241,16.489-2.844,17-12c-4.747-3.312-10.822-0.291-15,4c-4.245,4.359-15.858,25.558-21,8    c9.382-0.285,16.562-2.771,16-13C55.862,30.736,46.968,37.911,48,51z"/>
	<path d="M111,13c-0.204,3.129,0.675,7.341-1,9c3.384,1.351,5.876-6.766,13-5    c1.326,1.674,2.649,3.351,2,7c1.896,0.85,5.594-5.039,12-3c2.162,12.069-9.51,18.314-12,29c13.975,3.239,14.3-25.149,30-17    c0.081,10.081-8.823,11.177-17,13c2.143,10.834,16.856,1.604,19-3c0.521,5.538-9.168,9.487-16,11c-1.912-1.422-3.578-3.088-5-5    c-3.98,1.021-8.246,5.959-13,3c-0.217-9.972,10.88-17.055,13-28c-17.987-1.984-17.478,23.187-30,30    c5.131-12.202,15.467-19.2,17-35c-20.418,2.249-18.785,26.548-33,35c6.411-12.922,16.6-22.066,19-39c0.306-2.306-2.889-1.111-3-3    c-7.246-0.579-9.954,3.379-15,5C93.967,10.983,105.156,7.737,111,13z M140,41c1.871-0.054,2.117,0.77,1,2    c6.757,0.091,10.808-2.525,11-9C147.165,31.845,142.571,37.652,140,41z"/>
	<path d="M50,12c2.865,6.157-3.062,11.392-5,16    c-3.843-1.157-1.239-8.761-2-13C45.305,13.972,46.225,11.558,50,12z"/>
	<path d="M66,32c0.562,10.229-6.618,12.715-16,13c5.142,17.558,16.755-3.641,21-8    c4.178-4.291,10.253-7.312,15-4c-0.511,9.156-7.092,12.241-17,12c-0.792,3.458,1.112,4.222,2,6c9,0.666,13.174-3.492,17-8    c0.521,5.538-9.168,9.487-16,11c-2.053-1.947-4.88-3.12-5-7c-4.77,3.709-13.177,9.922-19,4C46.968,37.911,55.862,30.736,66,32z     M51,43c7.545,0.212,12.546-2.121,13-9C58.543,32.146,52.596,37.731,51,43z M70,43c7.846,0.513,12.803-1.863,13-9    C77.459,32.063,72.295,38.432,70,43z"/>
	<path d="M42,33c8.898,13.604-8.824,23.222-21,16    c1.98-5.122,11.333-0.025,17-3c-1.711-2.288-7.633-0.367-11-1C32.104,41.104,38.39,38.39,42,33z"/>
	<path d="M64,34c-0.454,6.879-5.455,9.212-13,9    C52.596,37.731,58.543,32.146,64,34z"/>
	<path d="M83,34c-0.197,7.137-5.154,9.513-13,9    C72.295,38.432,77.459,32.063,83,34z"/>
	<path d="M152,34c-0.192,6.475-4.243,9.091-11,9    c1.117-1.23,0.871-2.054-1-2C142.571,37.652,147.165,31.845,152,34z"/>
	<path d="M53,12c0.858,9.858-3.861,14.139-8,19c8.565,20.876-15.351,28.619-27,18    c-3.999,1.305-8.745,6.171-13,4c3.011-2.322,7.12-3.547,11-5c0.256-3.923-3.617-3.717-3-8c4.165,0.502,5.835,3.498,10,4    c7.273-3.727,14.053-7.947,19-14C36.746,20.941,42.486,4.51,53,12z M43,15c0.761,4.239-1.843,11.843,2,13    c1.938-4.608,7.865-9.843,5-16C46.225,11.558,45.305,13.972,43,15z M27,45c3.367,0.633,9.289-1.288,11,1    c-5.667,2.975-15.02-2.122-17,3c12.176,7.222,29.898-2.396,21-16C38.39,38.39,32.104,41.104,27,45z"/>
</svg>
